<svg version="1.2" xmlns="http://www.w3.org/2000/svg" viewBox="0 0 415 415" width="2048" height="2048">
	<title>icon-svg</title>
	<style>
		.s0 { fill: #0d5d73 } 
	</style>
	<g id="Background">
		<path id="Path 1" class="s0" d="m261.4 21.3c1.1 0.7 6.7 4.3 12.5 8.1 7.6 5 14.2 10.6 23.1 19.5 6.9 6.9 15.6 16.9 19.3 22.1 3.7 5.2 9.9 15.8 13.7 23.5 3.9 7.7 7.8 16.5 8.8 19.6 1.4 4.6 3.4 7.4 11.4 16l9.8 10.4c1.7-4.6 2.9-9.1 3.7-13 1-4.8 1.3-9.5 0.9-15-0.4-4.4-1.5-11.3-2.6-15.3-1.1-3.9-4-11.1-6.4-16-2.4-4.8-6.6-11.8-9.4-15.7-2.7-3.9-8.7-10.8-13.3-15.5-4.6-4.7-12.2-11.1-16.9-14.2-4.7-3.2-12.3-7.3-17-9.2-4.7-1.9-12-4.2-16.2-5-4.3-0.9-11.3-1.6-15.5-1.5-6.5 0-7.5 0.2-5.9 1.2zm80.1 3.9c2.8 2.2 8.5 7.8 12.9 12.2 4.3 4.5 10.4 11.9 13.5 16.6 3.2 4.7 7.3 11.9 9.3 16 2 4.1 4.4 9.9 5.4 12.8 1.1 2.8 2.1 5.2 2.4 5.2 0.3 0.1 3.2-5.5 6.4-12.2 3.3-6.8 7.4-16.6 9.2-21.8 1.9-5.2 3.4-11.1 3.4-13 0-1.9-0.8-5.1-1.8-7-1.1-1.9-3.7-4.5-5.8-5.7-2.1-1.1-8.2-2.8-13.4-3.7-5.2-0.9-14.5-2-20.5-2.6-6-0.5-14.4-1-18.5-1h-7.5zm-168.5 5.5c-1.9 0.3-7.3 1.1-12 2-4.7 0.8-12.8 2.9-18 4.5-5.2 1.7-15.3 5.8-22.5 9.3-7.1 3.4-16.4 8.3-20.5 11-4.1 2.6-11.5 8-16.5 12-4.9 4-12.8 11.3-17.4 16.2-4.7 4.9-10.2 11.1-12.4 13.9-2.2 2.7-6.6 8.8-9.7 13.5-3.2 4.6-8.5 13.9-11.8 20.5-3.3 6.6-7.6 16.5-9.5 22-1.9 5.5-4.6 15.1-6.1 21.5-1.4 6.3-3.1 17.5-3.8 25-0.9 10.4-0.9 16.6 0 27.5 0.7 7.7 2.4 18.9 3.7 25 1.4 6 3.9 15.2 5.6 20.5 1.7 5.2 5.7 14.9 8.8 21.5 3.2 6.6 7.7 15.1 10.1 19 2.3 3.8 6.8 10.3 9.8 14.5 3 4.1 9.4 11.5 14.1 16.3 4.7 4.9 12.4 12.1 17.1 16.1 4.7 3.9 12.3 9.6 17 12.7 4.7 3.1 13.7 8.2 20 11.3 6.3 3.2 16.7 7.5 23 9.6 6.3 2.1 16.2 4.9 22 6.1 9.2 2 13.3 2.3 33.5 2.3 20.2 0 24.3-0.3 33.5-2.3 5.8-1.2 15.2-3.8 21-5.7 5.8-1.9 16.4-6.4 23.5-10 7.1-3.6 17.2-9.5 22.4-13.2 5.2-3.7 13.8-11 19.1-16.2 5.4-5.3 13.1-14.4 17.4-20.5 4.3-6.1 10-15.5 12.6-21 2.6-5.5 5.7-13.2 6.8-17 1.2-3.9 2.8-11.1 3.7-16 0.8-5 1.5-12 1.5-15.5 0-3.6-0.5-9.5-1-13-0.6-3.6-2-9.5-3.1-13-1.2-3.6-3.7-9.5-5.7-13-2-3.8-6.7-9.7-11.1-14.1-4.4-4.4-10.4-9.1-14.1-11.2-3.6-2-9.6-4.6-13.5-5.8-5.4-1.7-9.5-2.2-18-2.1-8.8 0-12.7 0.5-19.5 2.5-4.7 1.4-11.9 4.4-16 6.8-4.4 2.5-10.4 7.2-14.5 11.4-3.9 3.9-8.5 9.6-10.2 12.5-1.8 3-4.4 8.2-5.7 11.5-1.4 3.3-3 9.1-3.6 13-0.8 5-0.9 8.9-0.1 14 0.6 3.8 1.7 9 2.6 11.5 0.9 2.4 2.9 6.5 4.5 9 1.6 2.4 5.4 6.8 8.4 9.7 3.1 2.9 8 6.4 10.9 7.7 2.8 1.4 7.7 2.8 10.7 3.2 4.1 0.5 7.1 0.1 11.5-1.2 4.8-1.5 7.2-3 12-7.9 4-4 6.5-7.4 7.3-10 0.6-2.2 1.2-6.1 1.2-8.5 0-3.1-0.7-5.6-2.3-8-1.2-2-3.4-3.9-4.7-4.4-1.4-0.5-3.6-0.7-5-0.3-1.4 0.3-3.3 1.9-4.2 3.6-1 1.7-3.2 3.7-4.8 4.6-1.6 0.8-4 1.5-5.2 1.5-1.3 0-3.5-0.9-5-2-1.6-1.1-3.5-3.4-4.3-5-0.8-1.7-1.5-4.6-1.5-6.5 0-2 0.8-5.2 1.8-7.2 0.9-2 3.4-5.2 5.5-7 2.2-2 6-4 9.5-5 3.8-1.1 7.5-1.4 11.2-1 3 0.3 8.2 1.9 11.5 3.5 3.4 1.7 7.9 5.1 10.5 7.8 2.4 2.7 5.4 7.1 6.7 9.9 1.2 2.7 2.8 7.9 3.4 11.5 0.9 5 0.9 8-0.1 13.5-0.7 3.8-2.8 9.9-4.6 13.5-1.8 3.5-5.5 8.9-8.1 11.9-2.6 2.9-7.5 7.3-10.8 9.6-3.3 2.4-9.4 5.9-13.5 7.9-4.1 1.9-12.9 5-19.5 6.7-10.4 2.7-14.3 3.2-28.5 3.6-12.6 0.4-18.8 0.1-26-1.2-5.2-0.9-14-3-19.5-4.7-5.5-1.6-14.3-5.1-19.5-7.7-5.2-2.6-12.6-6.8-16.5-9.4-3.9-2.6-10.4-7.7-14.6-11.5-4.1-3.7-10.2-9.7-13.3-13.2-3.2-3.6-8.5-10.6-11.8-15.5-3.3-5-8-13.1-10.3-18-2.4-5-5.7-13.1-7.3-18-1.7-5-3.8-12.9-4.9-17.5-1.4-6.8-1.8-12.8-1.8-29 0.1-17.9 0.4-21.7 2.3-29.5 1.3-5 4-13.3 6-18.5 2.1-5.3 5.4-12.5 7.3-16 2-3.6 4.9-7.6 6.5-8.8 2.1-1.7 4.2-2.3 7.4-2.3 2.5 0 5.5 0.7 6.8 1.5 1.2 0.9 2.9 3 3.8 4.8q1.6 3.3 1 6.8c-0.3 1.9-2.4 7.1-4.5 11.5-2.1 4.4-5 11.8-6.5 16.5-1.4 4.6-3 11.4-3.6 15-0.5 3.5-1 12.5-1 20 0 8.2 0.6 16.8 1.6 22 0.9 4.6 2.7 11.8 4.1 16 1.4 4.1 4.3 11.1 6.5 15.5 2.3 4.4 6.2 11.1 8.8 15 2.6 3.8 8 10.5 12.1 14.8 4.1 4.4 10.3 10.1 13.9 12.8 3.6 2.7 10.6 7 15.5 9.5 5 2.6 12.8 6 17.5 7.6 4.7 1.5 12.8 3.5 18 4.3 5.2 0.8 11.5 1.5 14 1.5h4.5c-14-9.2-21.3-14.7-25.3-18.2-4-3.5-9.6-9-12.4-12.3-2.8-3.3-7.6-9.9-10.7-14.5-3-4.7-7.2-12.4-9.3-17-2.1-4.7-4.9-13-6.4-18.5-1.8-7.1-2.7-13.8-3.1-22.5-0.3-7.3-0.1-15.6 0.6-19.8 0.6-4 2.3-11 3.7-15.5 1.4-4.5 4.4-11.8 6.6-16.2 2.2-4.4 5.9-10.7 8.1-14 2.3-3.3 6.9-8.9 10.2-12.5 3.3-3.5 9.4-8.9 13.5-12 4.1-3 11.1-7.4 15.5-9.7 4.4-2.3 11.8-5.5 16.5-7.1 4.7-1.7 12.3-3.8 17-4.7 5.3-1 13.6-1.6 22-1.5 8 0 16.3 0.6 20.5 1.5 3.9 0.8 7.9 1.8 9 2.1 1.8 0.6 1.9 0.4 1.2-2.2-0.5-1.6-2.6-5.9-4.7-9.4-2.1-3.6-6.5-10.1-9.7-14.5-3.3-4.4-9.8-11.6-14.4-15.9-4.6-4.4-12-10.3-16.4-13.2-4.4-2.9-12.2-7.2-17.2-9.4-5.1-2.2-12.8-4.9-17-6-4.3-1-11.3-2.4-15.5-3-4.3-0.6-13.3-1-20-0.9-6.8 0.1-13.9 0.3-15.8 0.5zm85 97.5c-3.6 0.5-10.5 2.3-15.5 4-5 1.6-12.6 5.1-17 7.7-4.4 2.5-11.3 7.8-15.4 11.6-4 3.9-9.3 10-11.6 13.6-2.4 3.5-5.6 9.2-7 12.5-1.5 3.3-3.6 9.8-4.7 14.5-1.6 6.6-1.9 10.6-1.5 18.5 0.3 7.2 1.2 12 3.1 17.5 1.5 4.1 3.8 8.9 5.1 10.7 1.4 1.8 3.3 3.3 4.3 3.3 1.2 0 2.3-1.9 4.1-7.3 1.3-4 3.9-10.4 5.8-14.2 1.9-3.9 5.4-9.7 7.7-13 2.4-3.3 7.4-9 11.2-12.6 3.8-3.5 8.9-7.9 11.4-9.6 2.5-1.7 7.4-4.6 11-6.4 3.6-1.8 9-4.1 12-5.1 3-1.1 8.5-2.6 12.3-3.4 3.7-0.8 11.5-1.5 17.5-1.5 5.9 0 14.5 0.8 19.2 1.6 4.7 0.9 11.7 2.8 15.5 4.2 3.9 1.4 9.7 4.2 13 6.1 3.3 2 8.6 5.7 11.8 8.4 3.1 2.6 6.5 4.6 7.5 4.5q1.7-0.3 1.5-2.8c-0.1-1.3-1-4.9-2.2-7.9-1.1-3.1-4.2-8.9-6.9-13-2.6-4.2-7.9-10.9-11.8-14.9-3.8-4.1-10.5-9.8-14.9-12.7-4.4-2.9-11.6-6.7-16-8.5-4.4-1.7-10.9-3.8-14.5-4.6-3.6-0.8-11.5-1.6-17.5-1.8-6-0.3-13.9 0-17.5 0.6z"/>
	</g>
</svg>